<mxfile host="app.diagrams.net" modified="2020-09-20T04:42:22.402Z" agent="5.0 (Macintosh; Intel Mac OS X 10_13_2) AppleWebKit/537.36 (KHTML, like Gecko) Chrome/85.0.4183.102 Safari/537.36" etag="GGhhHDql1pX4leKBQ71S" version="13.6.10" type="github">
  <diagram id="dsL6oakeFicBOrvGSXXl" name="Page-1">
    <mxGraphModel dx="946" dy="565" grid="1" gridSize="10" guides="1" tooltips="1" connect="1" arrows="1" fold="1" page="1" pageScale="1" pageWidth="827" pageHeight="1169" math="0" shadow="0">
      <root>
        <mxCell id="0" />
        <mxCell id="1" parent="0" />
        <mxCell id="AwmPWCsKpeCnTsiZ5o42-3" value="type: OBJ_SET" style="whiteSpace=wrap;html=1;align=center;fillColor=#ffe6cc;strokeColor=#d79b00;" parent="1" vertex="1">
          <mxGeometry x="170" y="335" width="190" height="30" as="geometry" />
        </mxCell>
        <mxCell id="AwmPWCsKpeCnTsiZ5o42-4" value="encoding: OBJ_ENCODING_INTSET" style="whiteSpace=wrap;html=1;align=center;fillColor=#d5e8d4;strokeColor=#82b366;" parent="1" vertex="1">
          <mxGeometry x="170" y="365" width="190" height="30" as="geometry" />
        </mxCell>
        <mxCell id="AwmPWCsKpeCnTsiZ5o42-5" value="ptr" style="whiteSpace=wrap;html=1;align=center;fillColor=#f8cecc;strokeColor=#b85450;" parent="1" vertex="1">
          <mxGeometry x="170" y="395" width="190" height="30" as="geometry" />
        </mxCell>
        <mxCell id="AwmPWCsKpeCnTsiZ5o42-6" value="···" style="whiteSpace=wrap;html=1;align=center;" parent="1" vertex="1">
          <mxGeometry x="170" y="425" width="190" height="30" as="geometry" />
        </mxCell>
        <mxCell id="AwmPWCsKpeCnTsiZ5o42-1" value="redisObject" style="swimlane;childLayout=stackLayout;horizontal=1;startSize=30;horizontalStack=0;rounded=1;fontSize=14;fontStyle=0;strokeWidth=2;resizeParent=0;resizeLast=1;shadow=0;dashed=0;align=center;swimlaneLine=0;fillColor=#dae8fc;strokeColor=#6c8ebf;" parent="1" vertex="1">
          <mxGeometry x="150" y="300" width="230" height="160" as="geometry" />
        </mxCell>
        <mxCell id="sL11Fz4VMmUzkcyhf7-z-1" value="" style="endArrow=classic;html=1;entryX=-0.017;entryY=0.092;entryDx=0;entryDy=0;entryPerimeter=0;" parent="1" target="V5U7SC_KrfXLSLHmZJdH-5" edge="1">
          <mxGeometry width="50" height="50" relative="1" as="geometry">
            <mxPoint x="360" y="408" as="sourcePoint" />
            <mxPoint x="420" y="407.5" as="targetPoint" />
          </mxGeometry>
        </mxCell>
        <mxCell id="V5U7SC_KrfXLSLHmZJdH-1" value="encoding" style="whiteSpace=wrap;html=1;align=center;fillColor=#ffe6cc;strokeColor=#d79b00;" parent="1" vertex="1">
          <mxGeometry x="420" y="430" width="90" height="30" as="geometry" />
        </mxCell>
        <mxCell id="V5U7SC_KrfXLSLHmZJdH-2" value="length" style="whiteSpace=wrap;html=1;align=center;fillColor=#d5e8d4;strokeColor=#82b366;" parent="1" vertex="1">
          <mxGeometry x="420" y="460" width="90" height="30" as="geometry" />
        </mxCell>
        <mxCell id="V5U7SC_KrfXLSLHmZJdH-3" value="contents" style="whiteSpace=wrap;html=1;align=center;fillColor=#e1d5e7;strokeColor=#9673a6;" parent="1" vertex="1">
          <mxGeometry x="420" y="490" width="90" height="25" as="geometry" />
        </mxCell>
        <mxCell id="V5U7SC_KrfXLSLHmZJdH-7" value="" style="endArrow=classic;html=1;entryX=0;entryY=0.5;entryDx=0;entryDy=0;" parent="1" target="V5U7SC_KrfXLSLHmZJdH-10" edge="1">
          <mxGeometry width="50" height="50" relative="1" as="geometry">
            <mxPoint x="510" y="503" as="sourcePoint" />
            <mxPoint x="515" y="545" as="targetPoint" />
          </mxGeometry>
        </mxCell>
        <mxCell id="V5U7SC_KrfXLSLHmZJdH-8" value="1024" style="rounded=0;whiteSpace=wrap;html=1;fillColor=#e1d5e7;strokeColor=#9673a6;" parent="1" vertex="1">
          <mxGeometry x="580" y="490" width="30" height="25" as="geometry" />
        </mxCell>
        <mxCell id="V5U7SC_KrfXLSLHmZJdH-9" value="2048" style="rounded=0;whiteSpace=wrap;html=1;fillColor=#e1d5e7;strokeColor=#9673a6;" parent="1" vertex="1">
          <mxGeometry x="610" y="490" width="30" height="25" as="geometry" />
        </mxCell>
        <mxCell id="V5U7SC_KrfXLSLHmZJdH-10" value="512" style="rounded=0;whiteSpace=wrap;html=1;fillColor=#e1d5e7;strokeColor=#9673a6;" parent="1" vertex="1">
          <mxGeometry x="550" y="490" width="30" height="25" as="geometry" />
        </mxCell>
        <mxCell id="V5U7SC_KrfXLSLHmZJdH-5" value="intset" style="swimlane;childLayout=stackLayout;horizontal=1;startSize=30;horizontalStack=0;rounded=1;fontSize=14;fontStyle=0;strokeWidth=2;resizeParent=0;resizeLast=1;shadow=0;dashed=0;align=center;swimlaneLine=0;fillColor=#f8cecc;strokeColor=#b85450;" parent="1" vertex="1">
          <mxGeometry x="400" y="395" width="130" height="130" as="geometry" />
        </mxCell>
        <mxCell id="vYhdvo2zC2Pnr_G6htoV-15" value="type: OBJ_SET" style="whiteSpace=wrap;html=1;align=center;fillColor=#ffe6cc;strokeColor=#d79b00;" vertex="1" parent="1">
          <mxGeometry x="60" y="635" width="190" height="30" as="geometry" />
        </mxCell>
        <mxCell id="vYhdvo2zC2Pnr_G6htoV-16" value="encoding: OBJ_ENCODING_HT" style="whiteSpace=wrap;html=1;align=center;fillColor=#d5e8d4;strokeColor=#82b366;" vertex="1" parent="1">
          <mxGeometry x="60" y="665" width="190" height="30" as="geometry" />
        </mxCell>
        <mxCell id="vYhdvo2zC2Pnr_G6htoV-17" value="ptr" style="whiteSpace=wrap;html=1;align=center;fillColor=#f8cecc;strokeColor=#b85450;" vertex="1" parent="1">
          <mxGeometry x="60" y="695" width="190" height="30" as="geometry" />
        </mxCell>
        <mxCell id="vYhdvo2zC2Pnr_G6htoV-18" value="···" style="whiteSpace=wrap;html=1;align=center;" vertex="1" parent="1">
          <mxGeometry x="60" y="725" width="190" height="30" as="geometry" />
        </mxCell>
        <mxCell id="vYhdvo2zC2Pnr_G6htoV-20" value="" style="endArrow=classic;html=1;entryX=-0.017;entryY=0.092;entryDx=0;entryDy=0;entryPerimeter=0;" edge="1" parent="1" target="vYhdvo2zC2Pnr_G6htoV-28">
          <mxGeometry width="50" height="50" relative="1" as="geometry">
            <mxPoint x="250" y="708" as="sourcePoint" />
            <mxPoint x="310" y="707.5" as="targetPoint" />
          </mxGeometry>
        </mxCell>
        <mxCell id="vYhdvo2zC2Pnr_G6htoV-21" value="type" style="whiteSpace=wrap;html=1;align=center;fillColor=#ffe6cc;strokeColor=#d79b00;" vertex="1" parent="1">
          <mxGeometry x="310" y="730" width="90" height="30" as="geometry" />
        </mxCell>
        <mxCell id="vYhdvo2zC2Pnr_G6htoV-22" value="ht[2]" style="whiteSpace=wrap;html=1;align=center;fillColor=#d5e8d4;strokeColor=#82b366;" vertex="1" parent="1">
          <mxGeometry x="310" y="760" width="90" height="30" as="geometry" />
        </mxCell>
        <mxCell id="vYhdvo2zC2Pnr_G6htoV-23" value="privdata" style="whiteSpace=wrap;html=1;align=center;fillColor=#e1d5e7;strokeColor=#9673a6;" vertex="1" parent="1">
          <mxGeometry x="310" y="790" width="90" height="25" as="geometry" />
        </mxCell>
        <mxCell id="vYhdvo2zC2Pnr_G6htoV-29" value="table" style="whiteSpace=wrap;html=1;align=center;fillColor=#ffe6cc;strokeColor=#d79b00;" vertex="1" parent="1">
          <mxGeometry x="450" y="705" width="50" height="30" as="geometry" />
        </mxCell>
        <mxCell id="vYhdvo2zC2Pnr_G6htoV-30" value="size:4" style="whiteSpace=wrap;html=1;align=center;fillColor=#d5e8d4;strokeColor=#82b366;" vertex="1" parent="1">
          <mxGeometry x="450" y="735" width="50" height="30" as="geometry" />
        </mxCell>
        <mxCell id="vYhdvo2zC2Pnr_G6htoV-31" value="used: 3" style="whiteSpace=wrap;html=1;align=center;fillColor=#e1d5e7;strokeColor=#9673a6;" vertex="1" parent="1">
          <mxGeometry x="450" y="760" width="50" height="25" as="geometry" />
        </mxCell>
        <mxCell id="vYhdvo2zC2Pnr_G6htoV-33" value="0" style="whiteSpace=wrap;html=1;align=center;fillColor=#f8cecc;strokeColor=#b85450;" vertex="1" parent="1">
          <mxGeometry x="540" y="732.5" width="50" height="25" as="geometry" />
        </mxCell>
        <mxCell id="vYhdvo2zC2Pnr_G6htoV-40" value="1" style="whiteSpace=wrap;html=1;align=center;fillColor=#f8cecc;strokeColor=#b85450;" vertex="1" parent="1">
          <mxGeometry x="540" y="757.5" width="50" height="25" as="geometry" />
        </mxCell>
        <mxCell id="vYhdvo2zC2Pnr_G6htoV-41" value="2" style="whiteSpace=wrap;html=1;align=center;fillColor=#f8cecc;strokeColor=#b85450;" vertex="1" parent="1">
          <mxGeometry x="540" y="782.5" width="50" height="25" as="geometry" />
        </mxCell>
        <mxCell id="vYhdvo2zC2Pnr_G6htoV-42" value="3" style="whiteSpace=wrap;html=1;align=center;fillColor=#f8cecc;strokeColor=#b85450;" vertex="1" parent="1">
          <mxGeometry x="540" y="807.5" width="50" height="25" as="geometry" />
        </mxCell>
        <mxCell id="vYhdvo2zC2Pnr_G6htoV-44" value="key1" style="whiteSpace=wrap;html=1;align=center;fillColor=#ffe6cc;strokeColor=#d79b00;" vertex="1" parent="1">
          <mxGeometry x="650" y="795" width="50" height="25" as="geometry" />
        </mxCell>
        <mxCell id="vYhdvo2zC2Pnr_G6htoV-45" value="value1" style="whiteSpace=wrap;html=1;align=center;fillColor=#ffe6cc;strokeColor=#d79b00;" vertex="1" parent="1">
          <mxGeometry x="700" y="795" width="50" height="25" as="geometry" />
        </mxCell>
        <mxCell id="vYhdvo2zC2Pnr_G6htoV-46" value="next" style="whiteSpace=wrap;html=1;align=center;fillColor=#ffe6cc;strokeColor=#d79b00;" vertex="1" parent="1">
          <mxGeometry x="750" y="795" width="50" height="25" as="geometry" />
        </mxCell>
        <mxCell id="vYhdvo2zC2Pnr_G6htoV-19" value="redisObject" style="swimlane;childLayout=stackLayout;horizontal=1;startSize=30;horizontalStack=0;rounded=1;fontSize=14;fontStyle=0;strokeWidth=2;resizeParent=0;resizeLast=1;shadow=0;dashed=0;align=center;swimlaneLine=0;fillColor=#dae8fc;strokeColor=#6c8ebf;" vertex="1" parent="1">
          <mxGeometry x="40" y="600" width="230" height="160" as="geometry" />
        </mxCell>
        <mxCell id="vYhdvo2zC2Pnr_G6htoV-28" value="dict" style="swimlane;childLayout=stackLayout;horizontal=1;startSize=30;horizontalStack=0;rounded=1;fontSize=14;fontStyle=0;strokeWidth=2;resizeParent=0;resizeLast=1;shadow=0;dashed=0;align=center;swimlaneLine=0;fillColor=#f8cecc;strokeColor=#b85450;" vertex="1" parent="1">
          <mxGeometry x="290" y="695" width="130" height="130" as="geometry" />
        </mxCell>
        <mxCell id="vYhdvo2zC2Pnr_G6htoV-47" value="" style="endArrow=classic;html=1;exitX=1;exitY=0.5;exitDx=0;exitDy=0;entryX=-0.014;entryY=0.162;entryDx=0;entryDy=0;entryPerimeter=0;" edge="1" parent="1" source="vYhdvo2zC2Pnr_G6htoV-22" target="vYhdvo2zC2Pnr_G6htoV-32">
          <mxGeometry width="50" height="50" relative="1" as="geometry">
            <mxPoint x="550" y="860" as="sourcePoint" />
            <mxPoint x="600" y="810" as="targetPoint" />
          </mxGeometry>
        </mxCell>
        <mxCell id="vYhdvo2zC2Pnr_G6htoV-49" value="table" style="whiteSpace=wrap;html=1;align=center;fillColor=#ffe6cc;strokeColor=#d79b00;" vertex="1" parent="1">
          <mxGeometry x="450" y="895" width="50" height="30" as="geometry" />
        </mxCell>
        <mxCell id="vYhdvo2zC2Pnr_G6htoV-50" value="size:0" style="whiteSpace=wrap;html=1;align=center;fillColor=#d5e8d4;strokeColor=#82b366;" vertex="1" parent="1">
          <mxGeometry x="450" y="925" width="50" height="30" as="geometry" />
        </mxCell>
        <mxCell id="vYhdvo2zC2Pnr_G6htoV-51" value="used: 0" style="whiteSpace=wrap;html=1;align=center;fillColor=#e1d5e7;strokeColor=#9673a6;" vertex="1" parent="1">
          <mxGeometry x="450" y="950" width="50" height="25" as="geometry" />
        </mxCell>
        <mxCell id="vYhdvo2zC2Pnr_G6htoV-53" value="" style="endArrow=classic;html=1;exitX=1;exitY=0.5;exitDx=0;exitDy=0;entryX=-0.014;entryY=0.1;entryDx=0;entryDy=0;entryPerimeter=0;" edge="1" parent="1" source="vYhdvo2zC2Pnr_G6htoV-22" target="vYhdvo2zC2Pnr_G6htoV-52">
          <mxGeometry width="50" height="50" relative="1" as="geometry">
            <mxPoint x="550" y="860" as="sourcePoint" />
            <mxPoint x="600" y="810" as="targetPoint" />
          </mxGeometry>
        </mxCell>
        <mxCell id="vYhdvo2zC2Pnr_G6htoV-54" value="" style="endArrow=classic;html=1;exitX=1;exitY=0.5;exitDx=0;exitDy=0;" edge="1" parent="1" source="vYhdvo2zC2Pnr_G6htoV-49">
          <mxGeometry width="50" height="50" relative="1" as="geometry">
            <mxPoint x="520" y="915" as="sourcePoint" />
            <mxPoint x="540" y="910" as="targetPoint" />
          </mxGeometry>
        </mxCell>
        <mxCell id="vYhdvo2zC2Pnr_G6htoV-55" value="NULL" style="text;html=1;align=center;verticalAlign=middle;resizable=0;points=[];autosize=1;" vertex="1" parent="1">
          <mxGeometry x="530" y="900" width="50" height="20" as="geometry" />
        </mxCell>
        <mxCell id="vYhdvo2zC2Pnr_G6htoV-56" value="" style="endArrow=classic;html=1;exitX=1;exitY=0.5;exitDx=0;exitDy=0;entryX=-0.043;entryY=0.147;entryDx=0;entryDy=0;entryPerimeter=0;" edge="1" parent="1" source="vYhdvo2zC2Pnr_G6htoV-29" target="vYhdvo2zC2Pnr_G6htoV-36">
          <mxGeometry width="50" height="50" relative="1" as="geometry">
            <mxPoint x="700" y="705" as="sourcePoint" />
            <mxPoint x="750" y="655" as="targetPoint" />
          </mxGeometry>
        </mxCell>
        <mxCell id="vYhdvo2zC2Pnr_G6htoV-58" value="" style="endArrow=classic;html=1;exitX=1;exitY=0.5;exitDx=0;exitDy=0;entryX=0;entryY=0.25;entryDx=0;entryDy=0;" edge="1" parent="1" source="vYhdvo2zC2Pnr_G6htoV-40" target="vYhdvo2zC2Pnr_G6htoV-43">
          <mxGeometry width="50" height="50" relative="1" as="geometry">
            <mxPoint x="500" y="915" as="sourcePoint" />
            <mxPoint x="550" y="865" as="targetPoint" />
          </mxGeometry>
        </mxCell>
        <mxCell id="vYhdvo2zC2Pnr_G6htoV-59" value="" style="endArrow=classic;html=1;exitX=1;exitY=0.5;exitDx=0;exitDy=0;" edge="1" parent="1" source="vYhdvo2zC2Pnr_G6htoV-33">
          <mxGeometry width="50" height="50" relative="1" as="geometry">
            <mxPoint x="500" y="915" as="sourcePoint" />
            <mxPoint x="660" y="725" as="targetPoint" />
          </mxGeometry>
        </mxCell>
        <mxCell id="vYhdvo2zC2Pnr_G6htoV-60" value="NULL" style="text;html=1;align=center;verticalAlign=middle;resizable=0;points=[];autosize=1;" vertex="1" parent="1">
          <mxGeometry x="650" y="715" width="50" height="20" as="geometry" />
        </mxCell>
        <mxCell id="vYhdvo2zC2Pnr_G6htoV-65" value="key3" style="whiteSpace=wrap;html=1;align=center;fillColor=#ffe6cc;strokeColor=#d79b00;" vertex="1" parent="1">
          <mxGeometry x="650" y="965" width="50" height="25" as="geometry" />
        </mxCell>
        <mxCell id="vYhdvo2zC2Pnr_G6htoV-66" value="value3" style="whiteSpace=wrap;html=1;align=center;fillColor=#ffe6cc;strokeColor=#d79b00;" vertex="1" parent="1">
          <mxGeometry x="700" y="965" width="50" height="25" as="geometry" />
        </mxCell>
        <mxCell id="vYhdvo2zC2Pnr_G6htoV-67" value="next" style="whiteSpace=wrap;html=1;align=center;fillColor=#ffe6cc;strokeColor=#d79b00;" vertex="1" parent="1">
          <mxGeometry x="750" y="965" width="50" height="25" as="geometry" />
        </mxCell>
        <mxCell id="vYhdvo2zC2Pnr_G6htoV-69" value="key2" style="whiteSpace=wrap;html=1;align=center;fillColor=#ffe6cc;strokeColor=#d79b00;" vertex="1" parent="1">
          <mxGeometry x="650" y="875" width="50" height="25" as="geometry" />
        </mxCell>
        <mxCell id="vYhdvo2zC2Pnr_G6htoV-70" value="value2" style="whiteSpace=wrap;html=1;align=center;fillColor=#ffe6cc;strokeColor=#d79b00;" vertex="1" parent="1">
          <mxGeometry x="700" y="875" width="50" height="25" as="geometry" />
        </mxCell>
        <mxCell id="vYhdvo2zC2Pnr_G6htoV-71" value="next" style="whiteSpace=wrap;html=1;align=center;fillColor=#ffe6cc;strokeColor=#d79b00;" vertex="1" parent="1">
          <mxGeometry x="750" y="875" width="50" height="25" as="geometry" />
        </mxCell>
        <mxCell id="vYhdvo2zC2Pnr_G6htoV-73" value="" style="endArrow=classic;html=1;exitX=1;exitY=0.5;exitDx=0;exitDy=0;entryX=0;entryY=0.25;entryDx=0;entryDy=0;" edge="1" parent="1" source="vYhdvo2zC2Pnr_G6htoV-41" target="vYhdvo2zC2Pnr_G6htoV-72">
          <mxGeometry width="50" height="50" relative="1" as="geometry">
            <mxPoint x="500" y="915" as="sourcePoint" />
            <mxPoint x="620" y="855" as="targetPoint" />
          </mxGeometry>
        </mxCell>
        <mxCell id="vYhdvo2zC2Pnr_G6htoV-74" value="" style="endArrow=classic;html=1;exitX=1;exitY=0.75;exitDx=0;exitDy=0;entryX=0;entryY=0.129;entryDx=0;entryDy=0;entryPerimeter=0;" edge="1" parent="1" source="vYhdvo2zC2Pnr_G6htoV-42" target="vYhdvo2zC2Pnr_G6htoV-68">
          <mxGeometry width="50" height="50" relative="1" as="geometry">
            <mxPoint x="500" y="915" as="sourcePoint" />
            <mxPoint x="550" y="865" as="targetPoint" />
          </mxGeometry>
        </mxCell>
        <mxCell id="vYhdvo2zC2Pnr_G6htoV-32" value="dictht" style="swimlane;childLayout=stackLayout;horizontal=1;startSize=30;horizontalStack=0;rounded=1;fontSize=14;fontStyle=0;strokeWidth=2;resizeParent=0;resizeLast=1;shadow=0;dashed=0;align=center;swimlaneLine=0;fillColor=#d5e8d4;strokeColor=#82b366;" vertex="1" parent="1">
          <mxGeometry x="440" y="665" width="70" height="130" as="geometry" />
        </mxCell>
        <mxCell id="vYhdvo2zC2Pnr_G6htoV-52" value="dictht" style="swimlane;childLayout=stackLayout;horizontal=1;startSize=30;horizontalStack=0;rounded=1;fontSize=14;fontStyle=0;strokeWidth=2;resizeParent=0;resizeLast=1;shadow=0;dashed=0;align=center;swimlaneLine=0;fillColor=#d5e8d4;strokeColor=#82b366;" vertex="1" parent="1">
          <mxGeometry x="440" y="855" width="70" height="130" as="geometry" />
        </mxCell>
        <mxCell id="vYhdvo2zC2Pnr_G6htoV-36" value="dictEntry**" style="swimlane;childLayout=stackLayout;horizontal=1;startSize=30;horizontalStack=0;rounded=1;fontSize=14;fontStyle=0;strokeWidth=2;resizeParent=0;resizeLast=1;shadow=0;dashed=0;align=center;swimlaneLine=0;fillColor=#ffe6cc;strokeColor=#d79b00;" vertex="1" parent="1">
          <mxGeometry x="530" y="695" width="70" height="150" as="geometry" />
        </mxCell>
        <mxCell id="vYhdvo2zC2Pnr_G6htoV-43" value="dictEntry" style="swimlane;childLayout=stackLayout;horizontal=1;startSize=30;horizontalStack=0;rounded=1;fontSize=14;fontStyle=0;strokeWidth=2;resizeParent=0;resizeLast=1;shadow=0;dashed=0;align=center;swimlaneLine=0;fillColor=#f8cecc;strokeColor=#b85450;" vertex="1" parent="1">
          <mxGeometry x="640" y="755" width="170" height="70" as="geometry" />
        </mxCell>
        <mxCell id="vYhdvo2zC2Pnr_G6htoV-68" value="dictEntry" style="swimlane;childLayout=stackLayout;horizontal=1;startSize=30;horizontalStack=0;rounded=1;fontSize=14;fontStyle=0;strokeWidth=2;resizeParent=0;resizeLast=1;shadow=0;dashed=0;align=center;swimlaneLine=0;fillColor=#f8cecc;strokeColor=#b85450;" vertex="1" parent="1">
          <mxGeometry x="640" y="925" width="170" height="70" as="geometry" />
        </mxCell>
        <mxCell id="vYhdvo2zC2Pnr_G6htoV-72" value="dictEntry" style="swimlane;childLayout=stackLayout;horizontal=1;startSize=30;horizontalStack=0;rounded=1;fontSize=14;fontStyle=0;strokeWidth=2;resizeParent=0;resizeLast=1;shadow=0;dashed=0;align=center;swimlaneLine=0;fillColor=#f8cecc;strokeColor=#b85450;" vertex="1" parent="1">
          <mxGeometry x="640" y="835" width="170" height="70" as="geometry" />
        </mxCell>
      </root>
    </mxGraphModel>
  </diagram>
</mxfile>
